<svg id="squid" viewBox="0 0 512 512" xmlns="http://www.w3.org/2000/svg"><path d="M468.283 343.913A22.925 22.925 0 0 0 429.386 331l-6.412 6.412a49.823 49.823 0 0 1-77.481-8.825l-21.714-34.741L324.8 265.9a420.915 420.915 0 0 0-2.018-84.147l-2.406-19.244a293.961 293.961 0 0 0-6.32-34.039l41.02-17.088A8 8 0 0 0 360 104a59.449 59.449 0 0 0-33.042-53.465l-67.38-33.69a8 8 0 0 0-7.156 0L185.04 50.536A59.767 59.767 0 0 0 152 104a8 8 0 0 0 4.924 7.385l41.02 17.088a293.961 293.961 0 0 0-6.32 34.039l-2.406 19.244A420.915 420.915 0 0 0 187.2 265.9l1.021 27.938-21.714 34.741a49.824 49.824 0 0 1-77.481 8.826l-6.412-6.414a22.925 22.925 0 0 0-33.822 30.887l1.809 2.17a99.962 99.962 0 0 0 143.391 10.522 49.85 49.85 0 0 1-57.892 42.093l-8.933-1.555a22.925 22.925 0 0 0-9.892 44.722l2.728.734a100.135 100.135 0 0 0 112-45.536V488a8 8 0 0 0 8 8h32a8 8 0 0 0 8-8v-72.963a99.895 99.895 0 0 0 112 45.527l2.728-.734a22.925 22.925 0 0 0-9.891-44.722l-8.935 1.555a49.848 49.848 0 0 1-57.89-42.093A99.962 99.962 0 0 0 461.4 364.051l1.809-2.17a22.956 22.956 0 0 0 5.074-17.968ZM343.7 98.793l-33.932 14.135a298.045 298.045 0 0 0-30.8-68.5L319.8 64.846a43.5 43.5 0 0 1 23.9 33.947Zm-175.386 0A43.758 43.758 0 0 1 192.2 64.846l40.839-20.42a298 298 0 0 0-30.8 68.5ZM248 480V352h16v128Zm202.916-128.361-1.809 2.17a83.91 83.91 0 0 1-130.7-2.2l-1.913-2.46a8 8 0 0 0-14.3 4.475l-.566 10.373a65.824 65.824 0 0 0 77.013 68.433l8.935-1.556a6.946 6.946 0 0 1 7.643 4.321 6.926 6.926 0 0 1-4.657 9.189l-2.727.734a83.911 83.911 0 0 1-105.623-76.906l-.883-24.5a8 8 0 0 0-8-7.712h-34.67a8 8 0 0 0-8 7.712l-.879 24.4a83.91 83.91 0 0 1-105.627 77l-2.727-.734a6.927 6.927 0 0 1-4.657-9.19 6.933 6.933 0 0 1 7.644-4.319l8.933 1.555a65.824 65.824 0 0 0 77.014-68.433l-.566-10.373a8 8 0 0 0-14.3-4.475l-1.913 2.46a83.91 83.91 0 0 1-130.695 2.2l-1.809-2.17a6.927 6.927 0 0 1 1.478-10.2 6.945 6.945 0 0 1 8.738.865l6.412 6.414a65.825 65.825 0 0 0 102.363-11.66l23.014-36.822a7.99 7.99 0 0 0 1.211-4.532l-1.117-30.549c0-.107-.01-.215-.018-.321a404.864 404.864 0 0 1 1.93-81.1L207.5 164.5a281.611 281.611 0 0 1 44.892-120.666L256 38.422l3.608 5.412A281.611 281.611 0 0 1 304.5 164.5l2.4 19.244a404.864 404.864 0 0 1 1.93 81.1 8.509 8.509 0 0 0-.018.321l-1.112 30.543a7.99 7.99 0 0 0 1.211 4.532l23.014 36.822a65.824 65.824 0 0 0 102.363 11.659l6.412-6.412a6.941 6.941 0 0 1 8.737-.866 6.926 6.926 0 0 1 1.479 10.2Z"></path><path d="m274.793 153.926-56 48a8 8 0 0 0 10.414 12.148l56-48a8 8 0 0 0-10.414-12.148zm0 48-56 48a8 8 0 0 0 10.414 12.148l56-48a8 8 0 0 0-10.414-12.148zm0 48-56 48a8 8 0 0 0 10.414 12.148l56-48a8 8 0 0 0-10.414-12.148zM120 320h16v16h-16zM120 272h16v32h-16zM88 288h16v16H88zM88 240h16v32H88zM376 320h16v16h-16zM376 272h16v32h-16zM408 288h16v16h-16zM408 240h16v32h-16z"></path></svg>